<svg xmlns="http://www.w3.org/2000/svg" viewBox="0 0 48 48" fill="none">
  <!-- Ocean wave background -->
  <rect width="48" height="48" rx="8" fill="#0A0A0A"/>
  
  <!-- Fish silhouette -->
  <path d="M34 24c0-3.5-2.5-6.5-6-7.5-1-.3-2-.5-3-.5-4 0-7.5 2-9.5 5-.5.8-1 1.8-1.2 2.8-.1.4-.2.8-.2 1.2 0 .4.1.8.2 1.2.2 1 .7 2 1.2 2.8 2 3 5.5 5 9.5 5 1 0 2-.2 3-.5 3.5-1 6-4 6-7.5z" fill="white"/>
  
  <!-- Fish eye -->
  <circle cx="28" cy="23" r="1.5" fill="#0A0A0A"/>
  
  <!-- Fish tail -->
  <path d="M35 24l5-4v8z" fill="white" opacity="0.9"/>
  
  <!-- Bubbles -->
  <circle cx="12" cy="14" r="1.5" fill="white" opacity="0.6"/>
  <circle cx="16" cy="11" r="1" fill="white" opacity="0.5"/>
  <circle cx="10" cy="18" r="1.2" fill="white" opacity="0.4"/>
</svg>
